<?xml version="1.0" encoding="utf-8"?>
<!-- Generator: Adobe Illustrator 23.0.1, SVG Export Plug-In . SVG Version: 6.00 Build 0)  -->
<svg version="1.1" id="Layer_1" xmlns="http://www.w3.org/2000/svg" xmlns:xlink="http://www.w3.org/1999/xlink" x="0px" y="0px"
	 width="127.6px" height="48.2px" viewBox="0 0 127.6 48.2" style="enable-background:new 0 0 127.6 48.2;" xml:space="preserve">
<style type="text/css">
	.st0{fill:#CC262D;}
	.st1{fill:#205E36;}
</style>
<path class="st0" d="M120.5,34.7c0,1.9-0.5,3.6-1.4,4.9c-1.1,1.4-2.6,2.2-4.4,2.2c-1.4,0-2.8-0.6-3.8-1.6c-1.1-1.1-1.6-2.3-1.6-3.8
	c0-0.1,0-0.4,0.1-0.8c0.7,0.4,1.6,0.7,2.6,0.7c1.8,0,2.7-0.5,2.7-1.5V28c0.6-1,1.4-2,2.6-3c1.3-1.1,2.4-1.8,3.4-2L120.5,34.7
	L120.5,34.7z"/>
<path class="st0" d="M105.2,34.7h-5.3V8.9c0.4-0.8,1.2-1.7,2.4-2.7c1.1-0.9,2.1-1.6,3-2.1L105.2,34.7L105.2,34.7z"/>
<path class="st0" d="M82.2,38.4c-0.7,0-1.4,0.2-2,0.8c-0.5,0.6-0.8,1.2-0.8,2s0.2,1.4,0.8,2c0.6,0.5,1.3,0.8,2.1,0.8s1.4-0.3,2-0.8
	c0.5-0.5,0.8-1.2,0.8-2c0-0.7-0.3-1.4-1-2C83.6,38.7,82.9,38.4,82.2,38.4z"/>
<path class="st0" d="M90.9,21.3c-1.1,1-1.9,2-2.3,2.8v3.8h-8.8h-4.4V4c-0.9,0.5-1.9,1.2-3,2.1c-1.1,1-1.9,1.9-2.3,2.8v23.7
	c0,1.4,0.7,2.1,2,2.1h6.1h1.6h0.1h12c1.3,0,2-0.7,2-2.1V19.2C93,19.7,92,20.4,90.9,21.3z"/>
<path class="st0" d="M90.3,38.4c-0.7,0-1.4,0.2-2,0.8c-0.5,0.6-0.8,1.2-0.8,2s0.2,1.5,0.8,2c0.6,0.5,1.3,0.8,2.1,0.8
	c0.8,0,1.4-0.3,2-0.8c0.5-0.5,0.8-1.2,0.8-2c0-0.7-0.5-1.5-1-2S91,38.4,90.3,38.4z"/>
<path class="st1" d="M58.5,13.9c0,0.8-0.3,1.5-0.8,2.1c-0.6,0.6-1.2,0.8-2,0.8s-1.5-0.3-2-0.8c-0.6-0.6-0.8-1.3-0.8-2.1
	s0.3-1.5,0.8-2c0.6-0.6,1.2-0.8,2-0.8s1.4,0.3,2,0.8C58.2,12.4,58.5,13.1,58.5,13.9z"/>
<path class="st1" d="M66.6,13.9c0,0.8-0.3,1.4-0.8,2s-1.3,0.8-2,0.8c-0.8,0-1.5-0.3-2-0.8c-0.5-0.6-0.8-1.3-0.8-2.1s0.3-1.5,0.8-2
	c0.6-0.6,1.2-0.8,2-0.8c0.8,0,1.5,0.3,2,0.8S66.6,13.1,66.6,13.9z"/>
<path class="st1" d="M61.1,21.3c-1.1,1-2,2-2.4,2.8v3.8h-6h-1.6h-2.3v-2.6c0-2.1-0.7-3.8-2.1-4.9c-1.2-1.1-3-1.6-5.1-1.6H24.1
	l15.4-8.3l-1.4-1.2l-22,10.2c-1.9,0.9-2.9,2.3-2.9,4.2c0,0.1,0.1,0.2,0.1,0.5h26.4c2.2,0,3.3,0.7,3.3,2.3c0,1-0.4,1.4-1.1,1.4H10.7
	C9,29.8,7.8,32,7.1,34.7h44h1.6h9.4c1.4,0,2-0.7,2-2.1V19.2C63.2,19.7,62.2,20.4,61.1,21.3z"/>
</svg>
